<?xml version="1.0" encoding="UTF-8"?><!DOCTYPE svg PUBLIC "-//W3C//DTD SVG 1.1//EN" "http://www.w3.org/Graphics/SVG/1.1/DTD/svg11.dtd"><svg xmlns="http://www.w3.org/2000/svg" xmlns:xlink="http://www.w3.org/1999/xlink"><symbol id="icon-cart" viewBox="0 0 20.751 22.667">
  <path id="&#x41A;&#x43E;&#x43D;&#x442;&#x443;&#x440;_3250" d="M7.663,18a2.667,2.667,0,1,0,2.667,2.667A2.663,2.663,0,0,0,7.663,18Z" transform="translate(-1.147 -0.667)" fill="#ffeb00"/>
  <path id="&#x41A;&#x43E;&#x43D;&#x442;&#x443;&#x440;_3251" d="M17.663,18a2.667,2.667,0,1,0,2.667,2.667A2.663,2.663,0,0,0,17.663,18Z" transform="translate(-2.256 -0.667)" fill="#ffeb00"/>
  <path id="&#x41A;&#x43E;&#x43D;&#x442;&#x443;&#x440;_3252" d="M16.091,13.733a2.056,2.056,0,0,0,1.815-1.1l3.713-6.923a1.063,1.063,0,0,0-.9-1.579H5.366L4.391,2H1V4.133H3.074l3.734,8.1-1.4,2.6A2.137,2.137,0,0,0,7.223,18H19.669V15.867H7.223l1.141-2.133ZM6.352,6.267h12.6L16.091,11.6H8.81Z" transform="translate(-1 -2)" fill="#ffeb00"/>
</symbol><symbol id="icon-fb" viewBox="0 0 26.327 26.327">
  <path id="&#x41A;&#x43E;&#x43D;&#x442;&#x443;&#x440;_3279" d="M23.914,0H2.412A2.434,2.434,0,0,0,0,2.412v21.5a2.434,2.434,0,0,0,2.412,2.412H13.163V15.357H9.872V12.066h3.291V8.776c0-2.742,1.1-4.388,4.388-4.388h3.291V7.679H19.415a1.923,1.923,0,0,0-1.864,1.864v2.524h4.388l-.548,3.291H17.551V26.327h6.363a2.434,2.434,0,0,0,2.412-2.412V2.412A2.434,2.434,0,0,0,23.914,0Zm0,0"/>
</symbol><symbol id="icon-inst" viewBox="0 0 26.327 26.327">
  <path id="&#x41A;&#x43E;&#x43D;&#x442;&#x443;&#x440;_3280" d="M13.676,6A7.688,7.688,0,0,0,6,13.681V24.65a7.688,7.688,0,0,0,7.681,7.676H24.65a7.688,7.688,0,0,0,7.676-7.681V13.676A7.688,7.688,0,0,0,24.646,6Zm13.165,4.388a1.1,1.1,0,1,1-1.1,1.1A1.1,1.1,0,0,1,26.842,10.388Zm-7.679,2.194a6.582,6.582,0,1,1-6.582,6.582A6.589,6.589,0,0,1,19.163,12.582Zm0,2.194a4.388,4.388,0,1,0,4.388,4.388A4.388,4.388,0,0,0,19.163,14.776Zm0,0" transform="translate(-6 -6)"/>
</symbol><symbol id="icon-phone" viewBox="0 0 21 21">
  <path id="&#x41A;&#x43E;&#x43D;&#x442;&#x443;&#x440;_3276" d="M7.13,5.333a14.364,14.364,0,0,0,.525,3.022l-1.4,1.4a17.3,17.3,0,0,1-.887-4.422H7.13m11.5,14.023a14.878,14.878,0,0,0,3.033.525V21.62a18,18,0,0,1-4.433-.875l1.4-1.388M8.25,3H4.167A1.17,1.17,0,0,0,3,4.167,19.832,19.832,0,0,0,22.833,24,1.17,1.17,0,0,0,24,22.833V18.762a1.17,1.17,0,0,0-1.167-1.167,13.308,13.308,0,0,1-4.165-.665.979.979,0,0,0-.362-.058,1.2,1.2,0,0,0-.828.338l-2.567,2.567a17.673,17.673,0,0,1-7.688-7.688L9.79,9.522a1.171,1.171,0,0,0,.292-1.19,13.254,13.254,0,0,1-.665-4.165A1.17,1.17,0,0,0,8.25,3Z" transform="translate(-3 -3)" fill="#ffeb00"/>
</symbol><symbol id="icon-quotes" viewBox="0 0 43.884 31.346">
  <path id="&#x41A;&#x43E;&#x43D;&#x442;&#x443;&#x440;_1277" d="M8.135,38.346h9.4l6.269-12.538V7H5V25.808h9.4Zm25.077,0h9.4l6.269-12.538V7H30.077V25.808h9.4Z" transform="translate(-5 -7)" fill="#ffeb00"/>
</symbol></svg>