<?xml version="1.0" encoding="UTF-8"?><!DOCTYPE svg PUBLIC "-//W3C//DTD SVG 1.1//EN" "http://www.w3.org/Graphics/SVG/1.1/DTD/svg11.dtd"><svg xmlns="http://www.w3.org/2000/svg" xmlns:xlink="http://www.w3.org/1999/xlink"><symbol id="icon-cart" viewBox="0 0 20.751 22.667">
  <path id="&#x41A;&#x43E;&#x43D;&#x442;&#x443;&#x440;_3250" d="M7.663,18a2.667,2.667,0,1,0,2.667,2.667A2.663,2.663,0,0,0,7.663,18Z" transform="translate(-1.147 -0.667)" fill="#ffeb00"/>
  <path id="&#x41A;&#x43E;&#x43D;&#x442;&#x443;&#x440;_3251" d="M17.663,18a2.667,2.667,0,1,0,2.667,2.667A2.663,2.663,0,0,0,17.663,18Z" transform="translate(-2.256 -0.667)" fill="#ffeb00"/>
  <path id="&#x41A;&#x43E;&#x43D;&#x442;&#x443;&#x440;_3252" d="M16.091,13.733a2.056,2.056,0,0,0,1.815-1.1l3.713-6.923a1.063,1.063,0,0,0-.9-1.579H5.366L4.391,2H1V4.133H3.074l3.734,8.1-1.4,2.6A2.137,2.137,0,0,0,7.223,18H19.669V15.867H7.223l1.141-2.133ZM6.352,6.267h12.6L16.091,11.6H8.81Z" transform="translate(-1 -2)" fill="#ffeb00"/>
</symbol><symbol id="icon-phone" viewBox="0 0 21 21">
  <path id="&#x41A;&#x43E;&#x43D;&#x442;&#x443;&#x440;_3276" d="M7.13,5.333a14.364,14.364,0,0,0,.525,3.022l-1.4,1.4a17.3,17.3,0,0,1-.887-4.422H7.13m11.5,14.023a14.878,14.878,0,0,0,3.033.525V21.62a18,18,0,0,1-4.433-.875l1.4-1.388M8.25,3H4.167A1.17,1.17,0,0,0,3,4.167,19.832,19.832,0,0,0,22.833,24,1.17,1.17,0,0,0,24,22.833V18.762a1.17,1.17,0,0,0-1.167-1.167,13.308,13.308,0,0,1-4.165-.665.979.979,0,0,0-.362-.058,1.2,1.2,0,0,0-.828.338l-2.567,2.567a17.673,17.673,0,0,1-7.688-7.688L9.79,9.522a1.171,1.171,0,0,0,.292-1.19,13.254,13.254,0,0,1-.665-4.165A1.17,1.17,0,0,0,8.25,3Z" transform="translate(-3 -3)" fill="#ffeb00"/>
</symbol></svg>